<?xml version="1.0" encoding="UTF-8" standalone="no"?>
<!-- Created with Inkscape (http://www.inkscape.org/) -->

<svg
   xmlns:dc="http://purl.org/dc/elements/1.1/"
   xmlns:cc="http://creativecommons.org/ns#"
   xmlns:rdf="http://www.w3.org/1999/02/22-rdf-syntax-ns#"
   xmlns:svg="http://www.w3.org/2000/svg"
   xmlns="http://www.w3.org/2000/svg"
   xmlns:sodipodi="http://sodipodi.sourceforge.net/DTD/sodipodi-0.dtd"
   xmlns:inkscape="http://www.inkscape.org/namespaces/inkscape"
   width="500mm"
   height="297mm"
   viewBox="0 0 1771.6535 1052.3622"
   id="svg3346"
   version="1.1"
   inkscape:version="0.91 r13725"
   sodipodi:docname="file_icon.svg">
  <defs
     id="defs3348">
    <inkscape:perspective
       sodipodi:type="inkscape:persp3d"
       inkscape:vp_x="0 : 526.1811 : 1"
       inkscape:vp_y="0 : 1000 : 0"
       inkscape:vp_z="1771.6535 : 526.1811 : 1"
       inkscape:persp3d-origin="885.82675 : 350.7874 : 1"
       id="perspective3378" />
  </defs>
  <sodipodi:namedview
     id="base"
     pagecolor="#ffffff"
     bordercolor="#666666"
     borderopacity="1.0"
     inkscape:pageopacity="0.0"
     inkscape:pageshadow="2"
     inkscape:zoom="0.70710678"
     inkscape:cx="1355.8735"
     inkscape:cy="563.45732"
     inkscape:document-units="px"
     inkscape:current-layer="layer1"
     showgrid="false"
     inkscape:window-width="1920"
     inkscape:window-height="1017"
     inkscape:window-x="1912"
     inkscape:window-y="-8"
     inkscape:window-maximized="1" />
  <metadata
     id="metadata3351">
    <rdf:RDF>
      <cc:Work
         rdf:about="">
        <dc:format>image/svg+xml</dc:format>
        <dc:type
           rdf:resource="http://purl.org/dc/dcmitype/StillImage" />
        <dc:title />
      </cc:Work>
    </rdf:RDF>
  </metadata>
  <g
     inkscape:label="Layer 1"
     inkscape:groupmode="layer"
     id="layer1">
    <path
       style="fill:#000000;fill-rule:evenodd;stroke:#000000;stroke-width:1px;stroke-linecap:butt;stroke-linejoin:miter;stroke-opacity:1"
       d="m 540.48006,60.933609 536.18254,2.857143 c 5.5739,0.0297 226.1696,237.711538 226.1945,231.908728 l -2.8572,664.75395 c -0.056,12.92874 -10.4085,23.3373 -23.3373,23.3373 l -736.18254,0 c -12.92886,0 -23.3373,-10.40844 -23.3373,-23.3373 l 0,-876.182522 c 0,-12.928863 10.40862,-23.406192 23.3373,-23.337299 z"
       id="rect3354"
       inkscape:connector-curvature="0"
       sodipodi:nodetypes="sssssssss" />
    <path
       style="fill:#ffffff;fill-rule:evenodd;stroke:#000000;stroke-width:0.96425986px;stroke-linecap:butt;stroke-linejoin:miter;stroke-opacity:1"
       d="m 555.15919,73.773076 512.81001,2.777642 c 5.3309,0.02888 216.3105,231.097222 216.3344,225.455872 l -2.7327,646.25714 c -0.053,12.569 -9.9548,22.68793 -22.32,22.68793 l -704.09171,0 c -12.36527,0 -22.32,-10.11882 -22.32,-22.68793 l 0,-851.802719 c 0,-12.569116 9.9549,-22.754912 22.32,-22.687935 z"
       id="rect3354-4"
       inkscape:connector-curvature="0"
       sodipodi:nodetypes="sssssssss" />
    <rect
       style="fill:#000000"
       id="rect3389"
       width="14.285715"
       height="234.64285"
       x="1062"
       y="72.362175" />
    <rect
       y="-1287.4287"
       x="290.07651"
       height="225.35715"
       width="17.142859"
       id="rect3391"
       style="fill:#000000"
       transform="matrix(0,1,-1,0,0,0)" />
    <g
       id="g3446"
       transform="translate(-2.8571429,25.714285)">
      <rect
         y="329.50504"
         x="671.42853"
         height="37.142857"
         width="457.14285"
         id="rect3393"
         style="fill:#1a1a1a" />
      <rect
         y="403.21936"
         x="672.85712"
         height="37.142857"
         width="388.57144"
         id="rect3393-5"
         style="fill:#1a1a1a" />
      <rect
         y="482.93362"
         x="671.14282"
         height="37.142857"
         width="445.71429"
         id="rect3393-6"
         style="fill:#1a1a1a" />
      <rect
         y="570.36218"
         x="669.99994"
         height="37.142857"
         width="500"
         id="rect3393-6-3"
         style="fill:#1a1a1a" />
      <rect
         y="654.36218"
         x="672.85706"
         height="37.142857"
         width="351.42856"
         id="rect3393-6-3-7"
         style="fill:#1a1a1a" />
    </g>
    <path
       style="fill:#000000"
       d="m 1301.2091,294.18906 -0.011,0.0332 c 1.5684,1.03708 1.8919,1.28181 2.1766,1.49155 l -2.1655,0 z"
       id="rect3394"
       inkscape:connector-curvature="0"
       sodipodi:nodetypes="ccccc" />
  </g>
</svg>
