<?xml version="1.0" encoding="UTF-8" standalone="no"?>
<!-- Created with Inkscape (http://www.inkscape.org/) -->

<svg
   xmlns:dc="http://purl.org/dc/elements/1.1/"
   xmlns:cc="http://creativecommons.org/ns#"
   xmlns:rdf="http://www.w3.org/1999/02/22-rdf-syntax-ns#"
   xmlns:svg="http://www.w3.org/2000/svg"
   xmlns="http://www.w3.org/2000/svg"
   xmlns:sodipodi="http://sodipodi.sourceforge.net/DTD/sodipodi-0.dtd"
   xmlns:inkscape="http://www.inkscape.org/namespaces/inkscape"
   inkscape:version="0.91 r13725"
   version="1.1"
   id="svg2"
   viewBox="0 0 1771.6535 1052.3622"
   height="297mm"
   width="500mm"
   sodipodi:docname="folder_icon.svg">
  <defs
     id="defs4" />
  <sodipodi:namedview
     inkscape:window-maximized="1"
     inkscape:window-y="-8"
     inkscape:window-x="1912"
     inkscape:window-height="1017"
     inkscape:window-width="1920"
     showgrid="false"
     inkscape:current-layer="layer1"
     inkscape:document-units="px"
     inkscape:cy="520"
     inkscape:cx="22.142857"
     inkscape:zoom="0.35"
     inkscape:pageshadow="2"
     inkscape:pageopacity="0.0"
     borderopacity="1.0"
     bordercolor="#666666"
     pagecolor="#ffffff"
     id="base" />
  <metadata
     id="metadata7">
    <rdf:RDF>
      <cc:Work
         rdf:about="">
        <dc:format>image/svg+xml</dc:format>
        <dc:type
           rdf:resource="http://purl.org/dc/dcmitype/StillImage" />
        <dc:title />
      </cc:Work>
    </rdf:RDF>
  </metadata>
  <g
     inkscape:label="Layer 1"
     inkscape:groupmode="layer"
     id="layer1">
    <path
       style="fill:#ffe680"
       d="M 311.42773 140.93359 C 285.27737 140.93359 263.56967 159.24255 258.34766 183.79102 L 257.14258 183.79102 L 257.14258 195.21875 L 257.14258 766.64844 L 257.14258 863.79102 L 1545.7148 863.79102 L 1545.7148 766.64844 L 1545.7148 195.21875 L 1545.7148 183.79102 L 1544.5098 183.79102 C 1539.2878 159.24255 1517.5781 140.93359 1491.4277 140.93359 L 311.42773 140.93359 z "
       transform="translate(-6.1035156e-5,0)"
       id="rect3346" />
    <path
       style="fill:#ffe680"
       d="m 305.08569,80.933586 465.25699,0 c 27.03522,0 259.05312,284.949604 237.37142,268.800034 L 819.14272,209.27639 c -21.68167,-16.14957 -21.76482,48.80003 -48.80004,48.80003 l -465.25699,0 c -27.03522,0 -48.80003,-21.76481 -48.80003,-48.80003 l 0,-79.54277 c 0,-27.03522 21.76481,-48.800034 48.80003,-48.800034 z"
       id="rect3352"
       inkscape:connector-curvature="0"
       sodipodi:nodetypes="sssssssss" />
    <rect
       style="fill:#f9f9f9"
       id="rect3358"
       width="1257.1428"
       height="694.28564"
       x="271.7142"
       y="155.21935"
       ry="23.337336"
       rx="0" />
    <path
       sodipodi:nodetypes="ccccc"
       inkscape:connector-curvature="0"
       id="path3408"
       d="m 202.85707,232.07648 1400.00003,2.72225 -64.5291,631.56346 -1287.77554,0 C 234.654,654.93359 218.75553,443.50506 202.85707,232.07648 Z"
       style="fill:#ffd42a" />
    <path
       style="fill:#ffd42a"
       d="m 607.69407,183.50505 973.05453,-2.85714 c 15.4137,-0.0453 29.2996,10.49307 27.8227,23.3373 l -31.4285,273.3254 c -1.4769,12.84423 -0.9953,-101.69861 -16.3942,-102.37699 L 587.91687,332.07648 C 572.518,331.39809 549.3196,300.62945 534.37981,297.3106 l -59.9843,-13.32539 c -14.93979,-3.31884 117.88485,-100.4349 133.29856,-100.48016 z"
       id="rect3421"
       inkscape:connector-curvature="0"
       sodipodi:nodetypes="sssssssss" />
  </g>
</svg>
